<svg width="864" height="865" viewBox="0 0 864 865" fill="none" xmlns="http://www.w3.org/2000/svg">
<path d="M116.039 115.978L231.822 231.71L229.42 238.593C226.217 247.877 222.534 275.09 221.253 299.421C220.132 318.789 219.972 319.91 213.246 333.196C209.402 340.719 203.637 351.924 200.114 358.167C168.566 415.473 163.922 424.437 164.883 425.397C165.203 425.877 182.979 426.678 204.117 427.318L242.552 428.278L243.673 419.795C244.794 410.991 246.075 409.39 283.868 365.37C287.391 361.368 297.32 349.523 305.968 339.439C317.498 325.672 323.263 320.23 327.907 318.309C335.114 315.428 338.477 316.228 340.078 320.87C342.641 329.194 338.157 336.557 301.484 384.579C298.441 388.581 284.829 406.829 271.057 425.397C257.445 443.805 243.993 461.894 241.27 465.415C236.786 471.338 223.174 489.586 181.217 546.251C172.409 558.097 149.349 589.151 129.972 615.082C47.6584 725.372 46.3772 727.133 48.6192 727.133C50.0605 727.133 245.274 678.791 261.448 674.469C267.694 672.708 282.107 669.187 293.477 666.466C305.007 663.744 321.502 659.582 330.31 657.341C339.117 655.1 350.648 652.219 355.932 650.939C361.217 649.658 368.103 647.897 371.146 647.097C374.189 646.296 410.701 637.172 452.018 627.088C493.495 616.843 539.616 605.478 554.669 601.636L581.893 594.753L601.911 613.962C612.801 624.527 645.95 656.221 675.416 684.394C704.883 712.566 742.035 748.262 757.89 763.789C794.882 799.805 857.818 860.153 861.822 863.194C864.544 865.435 864.544 865.115 861.502 858.872C859.58 855.19 853.815 843.345 848.53 832.46C843.406 821.575 832.676 799.485 824.669 783.158C787.516 706.644 780.47 692.077 765.096 660.703C756.128 642.135 742.996 615.243 735.95 600.676C728.744 586.109 717.854 563.379 711.448 550.253C705.043 536.967 693.352 512.957 685.345 496.629C677.498 480.302 666.929 458.692 662.125 448.608C657.32 438.523 643.868 410.831 632.338 387.3C620.808 363.609 611.359 343.76 611.359 342.8C611.359 342 610.719 341.359 610.078 341.359C609.438 341.359 594.705 354.645 577.249 370.973C559.794 387.46 544.42 400.586 542.818 400.586C538.975 400.586 534.491 395.624 534.491 391.622C534.491 388.581 539.616 382.818 606.235 312.066C635.701 280.692 640.185 275.25 638.423 273.009C637.302 271.728 631.217 266.446 624.971 261.323C562.836 210.581 488.05 178.086 414.544 169.922C406.057 168.962 398.85 167.841 398.53 167.521C397.89 166.881 399.011 152.635 402.694 112.777L403.495 102.692L350.648 144.951L297.641 187.37L267.854 168.802C251.52 158.557 231.342 145.751 223.014 140.469C214.687 135.187 194.669 122.541 178.495 112.457C162.48 102.372 143.584 90.5267 136.537 86.0447C129.491 81.4026 116.52 73.2389 107.712 67.6364C98.9039 62.194 89.1352 55.9511 86.0925 54.0303C83.0498 52.1094 74.8826 46.9871 67.9964 42.6652C61.1103 38.3432 50.3808 31.4601 43.9751 27.4583C37.5694 23.2964 25.2384 15.613 16.4306 10.1705L0.416382 0.246094L116.039 115.978ZM290.114 238.593L291.235 255.081L272.818 273.649C261.448 285.014 254.082 291.257 253.601 289.976C253.281 288.696 252.48 281.973 252.16 274.93L251.359 261.964L258.886 253.8C262.89 249.318 271.217 240.194 277.302 233.471C283.228 226.588 288.352 221.305 288.673 221.626C288.833 221.946 289.473 229.469 290.114 238.593ZM400.772 393.383C413.103 406.509 429.598 424.277 437.445 432.6C453.299 449.248 484.206 482.223 506.146 506.073C513.833 514.397 520.078 521.76 520.078 522.241C520.078 522.881 514.794 524.001 508.548 524.482C502.142 525.122 487.089 527.043 475.238 528.804C463.388 530.404 447.213 532.485 439.206 533.286C431.359 534.246 411.181 536.807 394.367 539.048C377.712 541.289 358.975 543.85 352.73 544.651C346.644 545.451 334.633 546.892 326.306 547.852C317.979 548.813 301.004 551.054 288.673 552.814C263.21 556.336 258.726 556.816 245.594 558.257L236.306 559.217L243.673 549.133C247.676 543.53 255.203 532.966 260.327 525.442C269.135 512.476 314.295 448.127 335.915 417.394C341.52 409.39 349.046 398.665 352.73 393.383C374.989 361.208 373.228 363.449 375.95 366.491C377.391 368.091 388.601 380.097 400.772 393.383Z" fill="#FF0000"/>
</svg>
